<svg width="32" height="32" viewBox="0 0 32 32" fill="none" xmlns="http://www.w3.org/2000/svg">
  <defs>
    <linearGradient id="gradient" x1="0%" y1="0%" x2="100%" y2="100%">
      <stop offset="0%" style="stop-color:#6366f1;stop-opacity:1" />
      <stop offset="50%" style="stop-color:#3b82f6;stop-opacity:1" />
      <stop offset="100%" style="stop-color:#1e40af;stop-opacity:1" />
    </linearGradient>
    <filter id="shadow" x="-20%" y="-20%" width="140%" height="140%">
      <feDropShadow dx="0" dy="2" stdDeviation="2" flood-color="#000" flood-opacity="0.2"/>
    </filter>
  </defs>
  
  <!-- Background circle -->
  <circle cx="16" cy="16" r="15" fill="url(#gradient)" filter="url(#shadow)"/>
  
  <!-- GitHub-style icon -->
  <path d="M16 6c-5.52 0-10 4.48-10 10 0 4.42 2.87 8.17 6.84 9.49.5.09.68-.22.68-.48 0-.24-.01-.87-.01-1.71-2.78.6-3.37-1.34-3.37-1.34-.45-1.15-1.11-1.46-1.11-1.46-.91-.62.07-.61.07-.61 1.0.07 1.53 1.03 1.53 1.03.89 1.53 2.34 1.09 2.91.83.09-.65.35-1.09.63-1.34-2.22-.25-4.55-1.11-4.55-4.94 0-1.09.39-1.98 1.03-2.68-.1-.25-.45-1.27.1-2.65 0 0 .84-.27 2.75 1.02.8-.22 1.65-.33 2.5-.33.85 0 1.7.11 2.5.33 1.91-1.29 2.75-1.02 2.75-1.02.55 1.38.2 2.4.1 2.65.64.7 1.03 1.59 1.03 2.68 0 3.84-2.34 4.68-4.57 4.93.36.31.68.92.68 1.85 0 1.34-.01 2.42-.01 2.75 0 .27.18.58.69.48C23.13 24.17 26 20.42 26 16c0-5.52-4.48-10-10-10z" fill="white" opacity="0.95"/>
  
  <!-- Issue indicator dot -->
  <circle cx="24" cy="8" r="3" fill="#ef4444"/>
  <circle cx="24" cy="8" r="2" fill="#fecaca"/>
</svg>
